# xmcd
#
# Track frame offsets:
#	150
#	13851
#	32454
#	43215
#	51460
#	66909
#	79226
#	89691
#	99535
#	109430
#	121521
#	133042
#	142888
#	154594
#	166955
#	177198
#	186946
#	207428
#
# Disc length: 2928
#
# Revision: 1
# Processed by: cddbd v1.5.1PL0 Copyright (c) Steve Scherf et al.
# Submitted via: OrangeCD 5.2
# Normalized: r0:DSETVAR1
#
DISCID=fe0b6e12
DTITLE=Various Artist - Truck, Trains, Working Man's Country
DYEAR=1900
DGENRE=Country
TTITLE0=Jimmy Dean - Big Bad John
TTITLE1=George Jones - Bartender Blues
TTITLE2=Frankie Laine - Sixteen Tons
TTITLE3=Jim Reeves - Waiting For A Train
TTITLE4=Red Simpson - I'm A Truck
TTITLE5=Merle Haggard - Workin' Man Blues
TTITLE6=Dave Dudley - Six Days On The Road
TTITLE7=Del Reeves - Looking At The World Through A Windshield
TTITLE8=Johnny Cash - Rock Island Line
TTITLE9=Red Streagall - Truck Drivin' Man
TTITLE10=Willis Brothers - Give Me 40 Acres
TTITLE11=Denis Olson - Truck Drivin' Outlaw
TTITLE12=Al Hurt and Ace Cannon - Gotta Travel On
TTITLE13=Red Simpson - Roll Truck Roll
TTITLE14=Roger Miller - Engine, Engine No. 9
TTITLE15=Dave Dudley - Truck Drivin' Son Of A Gun
TTITLE16=Charlie Rich - Big Boss Man
TTITLE17=Johnny Paycheck - Take This Job And Shove It
EXTD=
EXTT0=
EXTT1=
EXTT2=
EXTT3=
EXTT4=
EXTT5=
EXTT6=
EXTT7=
EXTT8=
EXTT9=
EXTT10=
EXTT11=
EXTT12=
EXTT13=
EXTT14=
EXTT15=
EXTT16=
EXTT17=
PLAYORDER=
